<svg width="79" height="108" viewBox="0 0 79 108" fill="none" xmlns="http://www.w3.org/2000/svg">
<path d="M0 0H27.4333L27.9313 99.955L26.03 99.7739L22.7706 99.6834H22.3631H20.0997L16.7497 99.955L10.1404 101.223L3.98371 103.441L1.99186 104.391L1.31282 104.618L0 105.342V0Z" fill="#338039"/>
<path d="M27.6143 40.4712H44.3187V40.9692L43.9113 41.5577L43.2322 42.7799L42.1005 45.0434L41.6478 46.5373L41.1046 48.0765L40.7424 49.6609L40.5161 51.1095L40.335 54.0973L40.5161 55.727L40.8782 56.9946L41.3309 58.4884L41.8741 59.5749L42.5079 60.7519L42.5985 61.0235H27.6143V40.4712Z" fill="#338039"/>
<ellipse cx="55.3642" cy="52.5581" rx="11.8153" ry="12.087" fill="#338039"/>
<path d="M47.8047 40.4258L67.18 40.5616V51.4263L44.5 47.6689L45.4507 45.2243L46.356 43.3683L47.352 41.3312L47.8047 40.4258Z" fill="#338039"/>
<path d="M27.4326 0H70.8008L70.7102 2.30874L70.4386 4.61749L69.9407 6.79042L69.2616 8.96336L68.4468 10.9099L67.315 12.7207L66.0022 14.5315L64.5083 16.1159L62.7881 17.5193L60.932 18.651L59.0307 19.6017L56.9936 20.2807L55.8619 20.6882L54.6848 20.9145L53.5531 21.2314H52.2403L47.0796 21.3672H27.4326V0Z" fill="#338039"/>
<path d="M74.1514 0H78.1351V4.79856L77.6824 8.37485L77.3655 10.1404L76.9581 11.9511L76.5507 13.2187L75.9169 14.6673L74.423 17.474L72.2954 20.2355L69.7603 22.4084L66.7272 24.0834L63.6489 25.0793L61.0685 25.532L58.2618 25.6678L55.093 25.3962L51.3809 24.4908L54.4592 24.0834L58.2618 23.2685L61.7928 21.9104L63.1057 21.1861L64.3732 20.3713L66.2745 18.8321L68.04 17.1571L70.0319 14.6673L71.5258 11.9511L72.6575 9.09917L73.0649 7.69581L73.4271 6.20192L74.0156 2.94252V2.2182L74.0609 1.81078V1.49389L74.1514 0Z" fill="#338039"/>
<path d="M27.7959 79.8555H78.2261V89.2263L77.9092 93.9795L77.3207 96.2883L76.5511 98.4612L74.6045 101.358L73.2917 102.717L72.5222 103.305L71.7073 103.848L70.6208 104.573L69.4438 105.161L68.2216 105.704L66.954 106.112L65.1432 106.564L63.1966 106.836L59.2129 107.017L54.5502 106.61L51.6077 106.021L50.8381 105.795L49.3442 105.387L46.3564 104.482L43.3233 103.622L40.4261 102.671L37.4383 101.766L34.1789 100.906L31.01 100.408L27.9317 99.9551L27.7959 79.8555Z" fill="#338039"/>
</svg>
